<svg id="Layer_1" data-name="Layer 1" xmlns="http://www.w3.org/2000/svg" xmlns:xlink="http://www.w3.org/1999/xlink" viewBox="0 0 800 800"><defs><style>.cls-1{fill:#660708;}.cls-2{clip-path:url(#clip-path);}.cls-3{fill:#f5f3f4;}</style><clipPath id="clip-path"><rect class="cls-1" y="0.1" width="799.9" height="799.8"/></clipPath></defs><rect id="SVGID" class="cls-1" y="0.1" width="799.9" height="799.8"/><rect id="SVGID-2" data-name="SVGID" class="cls-1" y="0.1" width="799.9" height="799.8"/><rect class="cls-1" y="0.1" width="799.9" height="799.8"/><g class="cls-2"><polygon class="cls-1" points="-0.1 -0.1 -0.1 799.9 799.9 799.9 799.9 -0.1 -0.1 -0.1"/></g><path class="cls-3" d="M267,187.14q82.74,0,82.74,54.41,0,22.09-18.7,36.55t-53.84,20.12v.56q43.63,2.85,64.33,19.56t20.68,46.47q0,29.74-27.49,48.74t-75.65,19q-79.35,0-79.34-49.87a35.43,35.43,0,0,1,9.07-24.37q9-10.2,23.8-10.2t23.52,7.37q8.78,7.37,8.78,17a52.72,52.72,0,0,1-3.4,18.7H233a31.26,31.26,0,0,0-3.4,14.17q0,7.37,7.93,12.75t20.4,5.38q20.42,0,27.21-15t6.8-43.07q0-28-6.52-40.23t-20.12-18.42q-9.65,1.69-30.6,4.53l-1.13-10.2q30.6-2.82,39.38-13.88t8.79-40q0-28.9-4.82-40.23T259.1,195.64q-24.38,0-24.37,20.4A36,36,0,0,0,237,228.51h9.06a52.06,52.06,0,0,1,3.4,18.42q0,9.34-9.35,17T216,271.58q-14.75,0-22.95-9.35t-8.22-23.52q0-22.65,21.53-37.12T267,187.14Zm40.81,396.14L489.75,186.57H509L327.67,583.28Zm160.94,0V572.51h32.87V527.74H406.44v-11.9l99.18-170.58h72V514.14h35.14V484.67H623.5v66.87H612.73v-23.8H577.59v44.77H602v10.77Zm-45.9-69.14h78.77V379.26Z"/></svg>