<svg id="Layer_1" data-name="Layer 1" xmlns="http://www.w3.org/2000/svg" xmlns:xlink="http://www.w3.org/1999/xlink" viewBox="0 0 800 800"><defs><style>.cls-1{fill:#e5383b;}.cls-2{fill:#0b090a;}.cls-3{fill:#161a1d;}.cls-4{fill:#660708;}.cls-5{fill:#a4161a;}.cls-6{fill:#ba181b;}.cls-7{fill:#b1a7a6;}.cls-8{fill:#d3d3d3;}.cls-9{fill:#f5f3f4;}.cls-10{fill:#fff;}.cls-11{clip-path:url(#clip-path);}</style><clipPath id="clip-path"><rect class="cls-1" y="0.1" width="799.9" height="799.8"/></clipPath></defs><rect class="cls-2" x="274.5" y="325.5" width="50" height="220"/><rect class="cls-3" x="324.5" y="325.5" width="50" height="220"/><rect class="cls-4" x="374.5" y="325.5" width="50" height="220"/><rect class="cls-5" x="424.5" y="325.5" width="50" height="220"/><rect class="cls-6" x="474.5" y="325.5" width="50" height="220"/><rect class="cls-1" x="524.5" y="325.5" width="50" height="220"/><rect class="cls-7" x="574.5" y="325.5" width="50" height="220"/><rect class="cls-8" x="624.5" y="325.5" width="50" height="220"/><rect class="cls-9" x="674.5" y="325.5" width="50" height="220"/><rect class="cls-10" x="724.5" y="325.5" width="50" height="220"/><rect id="SVGID" class="cls-1" y="0.1" width="799.9" height="799.8"/><rect id="SVGID-2" data-name="SVGID" class="cls-1" y="0.1" width="799.9" height="799.8"/><rect class="cls-1" y="0.1" width="799.9" height="799.8"/><g class="cls-11"><polygon class="cls-1" points="-0.1 -0.1 -0.1 799.9 799.9 799.9 799.9 -0.1 -0.1 -0.1"/></g><path class="cls-2" d="M328,620.24c-92.75,0-134.91-52.17-134.91-128.58V343.05c0-39,11.07-66.4,33.2-85.37l68-57.44c22.13-18.44,55.86-27.4,101.71-27.4H527.73c16.86,0,24.24,7.38,24.24,24.24v63.76c0,9.49-2.63,15.29-7.38,19.5l-68.5,56.92c-3.17,3.16-9,5.26-16.34,5.26H391.24v75.89a34.58,34.58,0,0,1,4.22-4.74l68-57.44c3.69-3.17,9.48-4.75,16.86-4.75H562c16.87,0,24.24,7.38,24.24,24.24V538.56c0,9.49-2.63,15.28-7.37,19.5L510.34,615c-3.16,3.16-9,5.27-16.34,5.27Zm253-81.68V375.72c0-13.17-5.8-19-19-19H480.3c-13.17,0-19,5.8-19,19v82.21H410.21c-16.33,0-24.24-7.9-24.24-25.82V306.16c0-17.91,10-26.35,32.15-26.35H527.73c13.18,0,19-5.79,19-19V197.08c0-13.18-5.79-19-19-19H396c-88.54,0-129.64,34.25-129.64,107.5V450c0,73.25,41.1,107.5,129.64,107.5H562C575.16,557.53,581,551.73,581,538.56ZM323.79,442.12V294.57c0-50.06,16.86-69,84.32-69h91.16v5.27H408.11c-62.19,0-79.05,16.86-79.05,63.76V442.12c0,45.85,18.44,62.71,89.59,62.71h99.6V404.18h5.26V510.1H418.65C341.18,510.1,323.79,491.13,323.79,442.12Z"/></svg>