<svg id="Layer_1" data-name="Layer 1" xmlns="http://www.w3.org/2000/svg" xmlns:xlink="http://www.w3.org/1999/xlink" viewBox="0 0 800 800"><defs><style>.cls-1{fill:#161a1d;}.cls-2{clip-path:url(#clip-path);}.cls-3{fill:#b1a7a6;}</style><clipPath id="clip-path"><rect class="cls-1" y="0.1" width="799.9" height="799.8"/></clipPath></defs><rect id="SVGID" class="cls-1" y="0.1" width="799.9" height="799.8"/><rect id="SVGID-2" data-name="SVGID" class="cls-1" y="0.1" width="799.9" height="799.8"/><rect class="cls-1" y="0.1" width="799.9" height="799.8"/><g class="cls-2"><polygon class="cls-1" points="-0.1 -0.1 -0.1 799.9 799.9 799.9 799.9 -0.1 -0.1 -0.1"/></g><path class="cls-3" d="M234.67,341.39H198.28V293.66h36.39V258.21q0-32.61,17.25-50.09t50.8-17.49h43v48.68H295.16v54.35h50.57v47.73H295.16v199H234.67Z"/><path class="cls-3" d="M608.49,561.15q0,19.36-6.85,34.26t-22.45,24.81q-15.6,9.93-40.17,15.12t-60,5.2q-31.2,0-52.93-4t-35.68-11.34q-14-7.33-20.09-18.19a49,49,0,0,1-6.14-24.58q0-20.8,11.58-32.37t32.37-14.89V530Q393,526.17,384.72,515t-8.27-26.26a36,36,0,0,1,3.78-16.8,39,39,0,0,1,10.16-12.55,62.74,62.74,0,0,1,14.41-8.75,86.66,86.66,0,0,1,17-5.45v-1.89Q399.13,433,388,414.54t-11.1-43q0-37.77,26-60.68T479,288a178.18,178.18,0,0,1,22.45,1.42A101.38,101.38,0,0,1,522,294.13v-8q0-35.91,35-35.91h38.28v46.31H542.8v6.62q19.37,10.88,28.83,28.35t9.45,40.17q0,37.35-25.76,60T479,454.34q-21.75,0-37.81-4.26a40.72,40.72,0,0,0-12.29,8.75,18.7,18.7,0,0,0-5.2,13.47q0,18.42,32.14,18.43H522q45.38,0,65.93,18.67T608.49,561.15Zm-56.71,7.08q0-11.82-9.45-18.43t-32.61-6.61H425.59q-12.75,9.43-12.76,25.52,0,14.17,11.82,22.21t40.17,8h30.25q29.77,0,43.24-7.56T551.78,568.23ZM479,412.75q44.41,0,44.42-37.59v-8q0-37.6-44.42-37.6t-44.43,37.6v8Q434.57,412.75,479,412.75Z"/></svg>