<svg id="Layer_1" data-name="Layer 1" xmlns="http://www.w3.org/2000/svg" xmlns:xlink="http://www.w3.org/1999/xlink" viewBox="0 0 800 800"><defs><style>.cls-1{fill:#a4161a;}.cls-2{clip-path:url(#clip-path);}.cls-3{fill:#d3d3d3;}</style><clipPath id="clip-path"><rect class="cls-1" y="0.1" width="799.9" height="799.8"/></clipPath></defs><rect id="SVGID" class="cls-1" y="0.1" width="799.9" height="799.8"/><rect id="SVGID-2" data-name="SVGID" class="cls-1" y="0.1" width="799.9" height="799.8"/><rect class="cls-1" y="0.1" width="799.9" height="799.8"/><g class="cls-2"><polygon class="cls-1" points="-0.1 -0.1 -0.1 799.9 799.9 799.9 799.9 -0.1 -0.1 -0.1"/></g><path class="cls-3" d="M168.74,562.53V529.11l38.07-6L240.9,265.26l-43.38-7.09V225.63H346.93l52.68,206.08,7.53,40.51,5.53-40.51,47.59-206.08H612.33v32.54l-48,6.86,39.62,258.1,37.19,6v33.42H486.16V529.11l36.08-6-20.36-190.8L493,252l-13.94,71.28L421.75,566.07H364.19L295.13,328.78l-19-75.92-2.88,79.24-17.49,191,45.16,6v33.42Z"/></svg>