<svg id="Layer_1" data-name="Layer 1" xmlns="http://www.w3.org/2000/svg" xmlns:xlink="http://www.w3.org/1999/xlink" viewBox="0 0 800 800"><defs><style>.cls-1{fill:#f5f3f4;}.cls-2{clip-path:url(#clip-path);}.cls-3{fill:#0b090a;}</style><clipPath id="clip-path"><rect class="cls-1" y="0.1" width="799.9" height="799.8"/></clipPath></defs><rect id="SVGID" class="cls-1" y="0.1" width="799.9" height="799.8"/><rect id="SVGID-2" data-name="SVGID" class="cls-1" y="0.1" width="799.9" height="799.8"/><rect class="cls-1" y="0.1" width="799.9" height="799.8"/><g class="cls-2"><polygon class="cls-1" points="-0.1 -0.1 -0.1 799.9 799.9 799.9 799.9 -0.1 -0.1 -0.1"/></g><path class="cls-3" d="M202.21,400.45v144.7H179V213.05h79q61.79,0,91.32,22.83t29.53,68.71q0,33.39-17.61,56.34t-53.49,32.94L398,545.15H370.31l-85.64-144.7Zm0-20h63.38q42,0,65.19-18.74T354,306.41q0-37.93-22.71-55.2T257.18,234h-55Z"/><path class="cls-3" d="M599.74,545.15l-5.68-39.07h-1.82Q573.61,529.93,554,539.82t-46.45,9.88q-36.35,0-56.56-18.63t-20.22-51.56q0-36.12,30.1-56.11T548,402.27l47-1.36V384.55q0-35.21-14.31-53.15t-46.12-17.95q-34.3,0-71.1,19.08L455,313q40.65-19.08,80.41-19.08,40.66,0,60.77,21.12t20.1,65.88V545.15Zm-90.87-15.9q39.52,0,62.36-22.6t22.83-62.81v-24.3l-43.16,1.81q-52,2.5-74.17,16.24t-22.15,42.82q0,23.18,14.2,36T508.87,529.25Z"/></svg>