<svg id="Layer_1" data-name="Layer 1" xmlns="http://www.w3.org/2000/svg" xmlns:xlink="http://www.w3.org/1999/xlink" viewBox="0 0 800 800"><defs><style>.cls-1{fill:#b1a7a6;}.cls-2{clip-path:url(#clip-path);}.cls-3{fill:#0b090a;}</style><clipPath id="clip-path"><rect class="cls-1" y="0.1" width="799.9" height="799.8"/></clipPath></defs><rect id="SVGID" class="cls-1" y="0.1" width="799.9" height="799.8"/><rect id="SVGID-2" data-name="SVGID" class="cls-1" y="0.1" width="799.9" height="799.8"/><rect class="cls-1" y="0.1" width="799.9" height="799.8"/><g class="cls-2"><polygon class="cls-1" points="-0.1 -0.1 -0.1 799.9 799.9 799.9 799.9 -0.1 -0.1 -0.1"/></g><path class="cls-3" d="M577.92,482.39A34.84,34.84,0,0,0,602,473q10.43-9.43,10.42-36.5h27.06q0,38.24-5.58,63.93T616.65,541.6a62.18,62.18,0,0,1-29.79,21.85q-18.12,6.33-43.44,6.33A150.72,150.72,0,0,1,494.76,562a180.17,180.17,0,0,1-42.46-20.73Q441.62,546,429.71,551a234,234,0,0,1-26.94,9.43,229.16,229.16,0,0,1-34.63,6.83,372,372,0,0,1-45.93,2.48,262.35,262.35,0,0,1-59.71-6.58q-28.17-6.57-49.28-20.11a104.31,104.31,0,0,1-33.64-34.38Q167,487.85,167,459.05q0-22.08,7.7-39.59A99.47,99.47,0,0,1,195.6,388.8a124.69,124.69,0,0,1,31.52-22.6,200.25,200.25,0,0,1,39.73-15.14,191.56,191.56,0,0,1-19.24-37.49q-6.84-18.37-6.83-33,0-30,13.28-48.91a92.32,92.32,0,0,1,34.39-29.54,156,156,0,0,1,47.29-14.65,347.52,347.52,0,0,1,52-4A216.31,216.31,0,0,1,431.7,188a134.5,134.5,0,0,1,38.85,14.15,81.72,81.72,0,0,1,27.68,24.7q10.42,15,10.43,35.88,0,19.86-8.57,33.51A82.87,82.87,0,0,1,477,320a173.58,173.58,0,0,1-33,17.87q-18.5,7.69-38.35,14.9A475,475,0,0,0,448.83,398q21.35,19.36,47.17,38.48a22,22,0,0,0,7.69-4.71,11,11,0,0,0,3.48-8.45c0-3.3-1.53-6.33-4.59-9.06s-11.14-4.09-24.21-4.09V339.39H639.49v70.76H627.83a38.78,38.78,0,0,0-23.46,7.32,119.61,119.61,0,0,0-19.25,17.75q-9.18,10.42-17.87,21.35a92.37,92.37,0,0,1-18.87,18.13,26.43,26.43,0,0,0,7.08,3.22q4.1,1.24,8.44,2.36a64.46,64.46,0,0,0,8.19,1.61A47.78,47.78,0,0,0,577.92,482.39ZM305.83,413.62a33.49,33.49,0,0,0-11.3,16.88,69.27,69.27,0,0,0-3.35,20.86q0,24.33,14.52,36.25t35.88,11.91A123.56,123.56,0,0,0,360,498a92.38,92.38,0,0,0,19.11-5q-12.17-10.68-21.84-19.86T339,454.59q-8.57-9.43-16.51-19.37T305.83,413.62Zm99.8-147.47q0-7.93-6.33-14.15t-17.75-6.21q-12.66,0-19.49,6.21t-6.83,16.39a36.82,36.82,0,0,0,4.1,16.63q4.1,8.19,11.54,20.85,15.88-8.69,25.32-16.75T405.63,266.15Z"/></svg>